<svg xmlns="http://www.w3.org/2000/svg" viewBox="0 0 512 512">
  <circle cx="166" cy="152" r="120" fill="#ff1212"/>
  <circle cx="338" cy="152" r="120" fill="#c10000"/>
  <g fill="#070707" stroke="#18b6d6" stroke-width="8" stroke-linejoin="round">
    <path transform="translate(180 322)" d="M0,-74 L21.7,-52.3 L52.3,-52.3 L52.3,-21.7 L74,0 L52.3,21.7 L52.3,52.3 L21.7,52.3 L0,74 L-21.7,52.3 L-52.3,52.3 L-52.3,21.7 L-74,0 L-52.3,-21.7 L-52.3,-52.3 L-21.7,-52.3 Z"/>
    <path transform="translate(340 312)" d="M0,-74 L21.7,-52.3 L52.3,-52.3 L52.3,-21.7 L74,0 L52.3,21.7 L52.3,52.3 L21.7,52.3 L0,74 L-21.7,52.3 L-52.3,52.3 L-52.3,21.7 L-74,0 L-52.3,-21.7 L-52.3,-52.3 L-21.7,-52.3 Z"/>
    <path transform="translate(261 408)" d="M0,-74 L21.7,-52.3 L52.3,-52.3 L52.3,-21.7 L74,0 L52.3,21.7 L52.3,52.3 L21.7,52.3 L0,74 L-21.7,52.3 L-52.3,52.3 L-52.3,21.7 L-74,0 L-52.3,-21.7 L-52.3,-52.3 L-21.7,-52.3 Z"/>
  </g>
</svg>
